<svg width="18" height="16" viewBox="0 0 18 16" fill="none" xmlns="http://www.w3.org/2000/svg">
<path d="M10 0.998648C10 0.689245 9.85938 0.398593 9.61563 0.211077C9.37188 0.0235596 9.05625 -0.0451966 8.75625 0.0298102L3.13438 1.43619C2.46875 1.60183 2 2.20188 2 2.88944V13.9998H1C0.446875 13.9998 0 14.4467 0 14.9999C0 15.5531 0.446875 16 1 16H3H9H10V14.9999V0.998648ZM8 7.99928C8 8.55245 7.66563 8.99937 7.25 8.99937C6.83437 8.99937 6.5 8.55245 6.5 7.99928C6.5 7.4461 6.83437 6.99919 7.25 6.99919C7.66563 6.99919 8 7.4461 8 7.99928ZM11 3.99892H14V14.9999C14 15.5531 14.4469 16 15 16H17C17.5531 16 18 15.5531 18 14.9999C18 14.4467 17.5531 13.9998 17 13.9998H16V3.99892C16 2.89569 15.1031 1.99874 14 1.99874H11V3.99892Z" fill="white"/>
</svg>
