<svg width="115" height="20" viewBox="0 0 115 20" fill="none" xmlns="http://www.w3.org/2000/svg">
<g clip-path="url(#clip0_21_692)">
<path d="M0 0.258301V1.66806L12.958 1.54929V0.258301H0Z" fill="#C500E0"/>
<path d="M0 9.29492V10.7047L12.958 10.5859V9.29492H0Z" fill="#C500E0"/>
<path d="M0 18.5903V20.0001L12.958 19.8813V18.5903H0Z" fill="#C500E0"/>
<path d="M42.2432 0V1.40976L55.2012 1.29099V0H42.2432Z" fill="#C500E0"/>
<path d="M42.2432 9.03711V10.4469L55.2012 10.3281V9.03711H42.2432Z" fill="#C500E0"/>
<path d="M42.2432 18.332V19.7418L55.2012 19.623V18.332H42.2432Z" fill="#C500E0"/>
<path d="M17.4829 0.258301H19.1364L26.8231 17.9448L35.0488 0.258301H36.5727L27.7042 20.0001H26.3488L17.4829 0.258301Z" fill="#C500E0"/>
<path d="M64.0646 20.0001H62.6755V0.258301H64.0646L77.3596 17.6867V0.258301H78.6217V20.0001H77.3648L64.1424 3.22758L64.0646 20.0001Z" fill="#C500E0"/>
<path d="M84.2454 0.258301H99.9298V1.58027H92.8158V20.0001H91.393V1.42019H84.2454V0.258301Z" fill="#C500E0"/>
<path d="M109.809 4.26025H108.459V15.9514H109.809V4.26025Z" fill="#C500E0"/>
<path d="M115.003 9.43213H103.268V10.7773H115.003V9.43213Z" fill="#C500E0"/>
</g>
<defs>
<clipPath id="clip0_21_692">
<rect width="115" height="20" fill="white"/>
</clipPath>
</defs>
</svg>
